<mxfile host="app.diagrams.net" agent="Mozilla/5.0 (Windows NT 10.0; Win64; x64) AppleWebKit/537.36 (KHTML, like Gecko) Chrome/132.0.0.0 Safari/537.36" version="26.0.13">
  <diagram name="Страница — 1" id="7J-8wnc92hM2MQXbI7Jq">
    <mxGraphModel dx="712" dy="821" grid="1" gridSize="10" guides="1" tooltips="1" connect="1" arrows="1" fold="1" page="0" pageScale="1" pageWidth="827" pageHeight="1169" math="0" shadow="0">
      <root>
        <mxCell id="0" />
        <mxCell id="1" parent="0" />
        <mxCell id="0bh1xVyFZVBSoRza94Cy-2" value="" style="ellipse;whiteSpace=wrap;html=1;aspect=fixed;" parent="1" vertex="1">
          <mxGeometry x="136" y="105" width="50" height="50" as="geometry" />
        </mxCell>
        <mxCell id="0bh1xVyFZVBSoRza94Cy-1" value="Конифгурация" style="rounded=0;whiteSpace=wrap;html=1;labelBackgroundColor=none;gradientColor=none;" parent="1" vertex="1">
          <mxGeometry x="38" y="100" width="120" height="60" as="geometry" />
        </mxCell>
        <mxCell id="0bh1xVyFZVBSoRza94Cy-3" value="Содержит" style="rhombus;whiteSpace=wrap;html=1;" parent="1" vertex="1">
          <mxGeometry x="260" y="90" width="160" height="80" as="geometry" />
        </mxCell>
        <mxCell id="0bh1xVyFZVBSoRza94Cy-5" value="" style="endArrow=none;html=1;rounded=0;fontSize=12;startSize=8;endSize=8;curved=1;entryX=0;entryY=0.5;entryDx=0;entryDy=0;exitX=1;exitY=0.5;exitDx=0;exitDy=0;" parent="1" source="0bh1xVyFZVBSoRza94Cy-2" target="0bh1xVyFZVBSoRza94Cy-3" edge="1">
          <mxGeometry width="50" height="50" relative="1" as="geometry">
            <mxPoint x="220" y="100" as="sourcePoint" />
            <mxPoint x="140" y="70" as="targetPoint" />
          </mxGeometry>
        </mxCell>
        <mxCell id="0bh1xVyFZVBSoRza94Cy-6" value="" style="endArrow=none;html=1;rounded=0;fontSize=12;startSize=8;endSize=8;curved=1;entryX=0;entryY=0.5;entryDx=0;entryDy=0;exitX=1;exitY=0.5;exitDx=0;exitDy=0;" parent="1" target="0bh1xVyFZVBSoRza94Cy-7" edge="1">
          <mxGeometry width="50" height="50" relative="1" as="geometry">
            <mxPoint x="420" y="129.58" as="sourcePoint" />
            <mxPoint x="510" y="129.58" as="targetPoint" />
          </mxGeometry>
        </mxCell>
        <mxCell id="0bh1xVyFZVBSoRza94Cy-7" value="" style="ellipse;whiteSpace=wrap;html=1;aspect=fixed;" parent="1" vertex="1">
          <mxGeometry x="496" y="104" width="50" height="50" as="geometry" />
        </mxCell>
        <mxCell id="0bh1xVyFZVBSoRza94Cy-8" value="Корпус" style="rounded=0;whiteSpace=wrap;html=1;labelBackgroundColor=none;gradientColor=none;" parent="1" vertex="1">
          <mxGeometry x="526" y="99" width="120" height="60" as="geometry" />
        </mxCell>
        <mxCell id="0bh1xVyFZVBSoRza94Cy-9" value="1" style="text;html=1;align=center;verticalAlign=middle;whiteSpace=wrap;rounded=0;" parent="1" vertex="1">
          <mxGeometry x="150" y="90" width="60" height="30" as="geometry" />
        </mxCell>
        <mxCell id="0bh1xVyFZVBSoRza94Cy-10" value="1" style="text;html=1;align=center;verticalAlign=middle;whiteSpace=wrap;rounded=0;" parent="1" vertex="1">
          <mxGeometry x="460" y="90" width="60" height="30" as="geometry" />
        </mxCell>
        <mxCell id="0bh1xVyFZVBSoRza94Cy-12" value="&lt;font style=&quot;font-size: 50px;&quot;&gt;.&lt;/font&gt;" style="text;html=1;align=center;verticalAlign=middle;whiteSpace=wrap;rounded=0;" parent="1" vertex="1">
          <mxGeometry x="480" y="99" width="60" height="30" as="geometry" />
        </mxCell>
        <mxCell id="0bh1xVyFZVBSoRza94Cy-11" value="&lt;font style=&quot;font-size: 50px;&quot;&gt;.&lt;/font&gt;" style="text;html=1;align=center;verticalAlign=middle;whiteSpace=wrap;rounded=0;" parent="1" vertex="1">
          <mxGeometry x="140" y="100" width="60" height="30" as="geometry" />
        </mxCell>
      </root>
    </mxGraphModel>
  </diagram>
</mxfile>
